<svg width="435" height="450" viewBox="0 0 435 450" fill="none" xmlns="http://www.w3.org/2000/svg">
<path d="M-253.725 243H-213.259L-152.156 364.5H-192.622L-253.725 243Z" fill="url(#paint0_linear_994_3316)"/>
<path d="M-295 0H-254.534L-193.431 121.5H-233.897L-295 0Z" fill="url(#paint1_linear_994_3316)"/>
<path d="M-233.088 364.5H-192.622L-131.519 486H-171.984L-233.088 364.5Z" fill="url(#paint2_linear_994_3316)"/>
<path d="M-274.363 121.5H-233.897L-172.794 243H-213.259L-274.363 121.5Z" fill="url(#paint3_linear_994_3316)"/>
<path d="M-172.794 243H-132.328L-71.2251 364.5H-111.691L-172.794 243Z" fill="url(#paint4_linear_994_3316)"/>
<path d="M-214.069 0H-173.603L-112.5 121.5H-152.966L-214.069 0Z" fill="url(#paint5_linear_994_3316)"/>
<path d="M-152.156 364.5H-111.691L-50.5876 486H-91.0532L-152.156 364.5Z" fill="url(#paint6_linear_994_3316)"/>
<path d="M-193.431 121.5H-152.966L-91.8625 243H-132.328L-193.431 121.5Z" fill="url(#paint7_linear_994_3316)"/>
<path d="M-91.8625 243H-51.3969L9.70621 364.5H-30.7594L-91.8625 243Z" fill="url(#paint8_linear_994_3316)"/>
<path d="M-133.137 0H-92.6718L-31.5687 121.5H-72.0344L-133.137 0Z" fill="url(#paint9_linear_994_3316)"/>
<path d="M-71.2251 364.5H-30.7594L30.3437 486H-10.1219L-71.2251 364.5Z" fill="url(#paint10_linear_994_3316)"/>
<path d="M-112.5 121.5H-72.0344L-10.9313 243H-51.3969L-112.5 121.5Z" fill="url(#paint11_linear_994_3316)"/>
<path d="M-10.9313 243H29.5344L90.6375 364.5H50.1718L-10.9313 243Z" fill="url(#paint12_linear_994_3316)"/>
<path d="M-52.2062 0H-11.7406L49.3625 121.5H8.89691L-52.2062 0Z" fill="url(#paint13_linear_994_3316)"/>
<path d="M9.70621 364.5H50.1718L111.275 486H70.8093L9.70621 364.5Z" fill="url(#paint14_linear_994_3316)"/>
<path d="M-31.5687 121.5H8.89691L70 243H29.5344L-31.5687 121.5Z" fill="url(#paint15_linear_994_3316)"/>
<path d="M70 243H110.466L171.569 364.5H131.103L70 243Z" fill="url(#paint16_linear_994_3316)"/>
<path d="M28.7251 0H69.1907L130.294 121.5H89.8282L28.7251 0Z" fill="url(#paint17_linear_994_3316)"/>
<path d="M90.6375 364.5H131.103L192.206 486H151.741L90.6375 364.5Z" fill="url(#paint18_linear_994_3316)"/>
<path d="M49.3625 121.5H89.8282L150.931 243H110.466L49.3625 121.5Z" fill="url(#paint19_linear_994_3316)"/>
<path d="M150.931 243H191.397L252.5 364.5H212.034L150.931 243Z" fill="url(#paint20_linear_994_3316)"/>
<path d="M109.656 0H150.122L211.225 121.5H170.759L109.656 0Z" fill="url(#paint21_linear_994_3316)"/>
<path d="M171.569 364.5H212.034L273.137 486H232.672L171.569 364.5Z" fill="url(#paint22_linear_994_3316)"/>
<path d="M130.294 121.5H170.759L231.863 243H191.397L130.294 121.5Z" fill="url(#paint23_linear_994_3316)"/>
<path d="M231.863 243H272.328L333.431 364.5H292.966L231.863 243Z" fill="url(#paint24_linear_994_3316)"/>
<path d="M190.588 0H231.053L292.156 121.5H251.691L190.588 0Z" fill="url(#paint25_linear_994_3316)"/>
<path d="M252.5 364.5H292.966L354.069 486H313.603L252.5 364.5Z" fill="url(#paint26_linear_994_3316)"/>
<path d="M211.225 121.5H251.691L312.794 243H272.328L211.225 121.5Z" fill="url(#paint27_linear_994_3316)"/>
<path d="M312.794 243H353.259L414.363 364.5H373.897L312.794 243Z" fill="url(#paint28_linear_994_3316)"/>
<path d="M271.519 0H311.984L373.088 121.5H332.622L271.519 0Z" fill="url(#paint29_linear_994_3316)"/>
<path d="M333.431 364.5H373.897L435 486H394.534L333.431 364.5Z" fill="url(#paint30_linear_994_3316)"/>
<path d="M292.156 121.5H332.622L393.725 243H353.259L292.156 121.5Z" fill="url(#paint31_linear_994_3316)"/>
<defs>
<linearGradient id="paint0_linear_994_3316" x1="70" y1="0" x2="70" y2="486" gradientUnits="userSpaceOnUse">
<stop stop-color="#142B52"/>
<stop offset="1" stop-color="#183667"/>
</linearGradient>
<linearGradient id="paint1_linear_994_3316" x1="70" y1="0" x2="70" y2="486" gradientUnits="userSpaceOnUse">
<stop stop-color="#142B52"/>
<stop offset="1" stop-color="#183667"/>
</linearGradient>
<linearGradient id="paint2_linear_994_3316" x1="70" y1="0" x2="70" y2="486" gradientUnits="userSpaceOnUse">
<stop stop-color="#142B52"/>
<stop offset="1" stop-color="#183667"/>
</linearGradient>
<linearGradient id="paint3_linear_994_3316" x1="70" y1="0" x2="70" y2="486" gradientUnits="userSpaceOnUse">
<stop stop-color="#142B52"/>
<stop offset="1" stop-color="#183667"/>
</linearGradient>
<linearGradient id="paint4_linear_994_3316" x1="70" y1="0" x2="70" y2="486" gradientUnits="userSpaceOnUse">
<stop stop-color="#142B52"/>
<stop offset="1" stop-color="#183667"/>
</linearGradient>
<linearGradient id="paint5_linear_994_3316" x1="70" y1="0" x2="70" y2="486" gradientUnits="userSpaceOnUse">
<stop stop-color="#142B52"/>
<stop offset="1" stop-color="#183667"/>
</linearGradient>
<linearGradient id="paint6_linear_994_3316" x1="70" y1="0" x2="70" y2="486" gradientUnits="userSpaceOnUse">
<stop stop-color="#142B52"/>
<stop offset="1" stop-color="#183667"/>
</linearGradient>
<linearGradient id="paint7_linear_994_3316" x1="70" y1="0" x2="70" y2="486" gradientUnits="userSpaceOnUse">
<stop stop-color="#142B52"/>
<stop offset="1" stop-color="#183667"/>
</linearGradient>
<linearGradient id="paint8_linear_994_3316" x1="70" y1="0" x2="70" y2="486" gradientUnits="userSpaceOnUse">
<stop stop-color="#142B52"/>
<stop offset="1" stop-color="#183667"/>
</linearGradient>
<linearGradient id="paint9_linear_994_3316" x1="70" y1="0" x2="70" y2="486" gradientUnits="userSpaceOnUse">
<stop stop-color="#142B52"/>
<stop offset="1" stop-color="#183667"/>
</linearGradient>
<linearGradient id="paint10_linear_994_3316" x1="70" y1="0" x2="70" y2="486" gradientUnits="userSpaceOnUse">
<stop stop-color="#142B52"/>
<stop offset="1" stop-color="#183667"/>
</linearGradient>
<linearGradient id="paint11_linear_994_3316" x1="70" y1="0" x2="70" y2="486" gradientUnits="userSpaceOnUse">
<stop stop-color="#142B52"/>
<stop offset="1" stop-color="#183667"/>
</linearGradient>
<linearGradient id="paint12_linear_994_3316" x1="70" y1="0" x2="70" y2="486" gradientUnits="userSpaceOnUse">
<stop stop-color="#142B52"/>
<stop offset="1" stop-color="#183667"/>
</linearGradient>
<linearGradient id="paint13_linear_994_3316" x1="70" y1="0" x2="70" y2="486" gradientUnits="userSpaceOnUse">
<stop stop-color="#142B52"/>
<stop offset="1" stop-color="#183667"/>
</linearGradient>
<linearGradient id="paint14_linear_994_3316" x1="70" y1="0" x2="70" y2="486" gradientUnits="userSpaceOnUse">
<stop stop-color="#142B52"/>
<stop offset="1" stop-color="#183667"/>
</linearGradient>
<linearGradient id="paint15_linear_994_3316" x1="70" y1="0" x2="70" y2="486" gradientUnits="userSpaceOnUse">
<stop stop-color="#142B52"/>
<stop offset="1" stop-color="#183667"/>
</linearGradient>
<linearGradient id="paint16_linear_994_3316" x1="70" y1="0" x2="70" y2="486" gradientUnits="userSpaceOnUse">
<stop stop-color="#142B52"/>
<stop offset="1" stop-color="#183667"/>
</linearGradient>
<linearGradient id="paint17_linear_994_3316" x1="70" y1="0" x2="70" y2="486" gradientUnits="userSpaceOnUse">
<stop stop-color="#142B52"/>
<stop offset="1" stop-color="#183667"/>
</linearGradient>
<linearGradient id="paint18_linear_994_3316" x1="70" y1="0" x2="70" y2="486" gradientUnits="userSpaceOnUse">
<stop stop-color="#142B52"/>
<stop offset="1" stop-color="#183667"/>
</linearGradient>
<linearGradient id="paint19_linear_994_3316" x1="70" y1="0" x2="70" y2="486" gradientUnits="userSpaceOnUse">
<stop stop-color="#142B52"/>
<stop offset="1" stop-color="#183667"/>
</linearGradient>
<linearGradient id="paint20_linear_994_3316" x1="70" y1="0" x2="70" y2="486" gradientUnits="userSpaceOnUse">
<stop stop-color="#142B52"/>
<stop offset="1" stop-color="#183667"/>
</linearGradient>
<linearGradient id="paint21_linear_994_3316" x1="70" y1="0" x2="70" y2="486" gradientUnits="userSpaceOnUse">
<stop stop-color="#142B52"/>
<stop offset="1" stop-color="#183667"/>
</linearGradient>
<linearGradient id="paint22_linear_994_3316" x1="70" y1="0" x2="70" y2="486" gradientUnits="userSpaceOnUse">
<stop stop-color="#142B52"/>
<stop offset="1" stop-color="#183667"/>
</linearGradient>
<linearGradient id="paint23_linear_994_3316" x1="70" y1="0" x2="70" y2="486" gradientUnits="userSpaceOnUse">
<stop stop-color="#142B52"/>
<stop offset="1" stop-color="#183667"/>
</linearGradient>
<linearGradient id="paint24_linear_994_3316" x1="70" y1="0" x2="70" y2="486" gradientUnits="userSpaceOnUse">
<stop stop-color="#142B52"/>
<stop offset="1" stop-color="#183667"/>
</linearGradient>
<linearGradient id="paint25_linear_994_3316" x1="70" y1="0" x2="70" y2="486" gradientUnits="userSpaceOnUse">
<stop stop-color="#142B52"/>
<stop offset="1" stop-color="#183667"/>
</linearGradient>
<linearGradient id="paint26_linear_994_3316" x1="70" y1="0" x2="70" y2="486" gradientUnits="userSpaceOnUse">
<stop stop-color="#142B52"/>
<stop offset="1" stop-color="#183667"/>
</linearGradient>
<linearGradient id="paint27_linear_994_3316" x1="70" y1="0" x2="70" y2="486" gradientUnits="userSpaceOnUse">
<stop stop-color="#142B52"/>
<stop offset="1" stop-color="#183667"/>
</linearGradient>
<linearGradient id="paint28_linear_994_3316" x1="70" y1="0" x2="70" y2="486" gradientUnits="userSpaceOnUse">
<stop stop-color="#142B52"/>
<stop offset="1" stop-color="#183667"/>
</linearGradient>
<linearGradient id="paint29_linear_994_3316" x1="70" y1="0" x2="70" y2="486" gradientUnits="userSpaceOnUse">
<stop stop-color="#142B52"/>
<stop offset="1" stop-color="#183667"/>
</linearGradient>
<linearGradient id="paint30_linear_994_3316" x1="70" y1="0" x2="70" y2="486" gradientUnits="userSpaceOnUse">
<stop stop-color="#142B52"/>
<stop offset="1" stop-color="#183667"/>
</linearGradient>
<linearGradient id="paint31_linear_994_3316" x1="70" y1="0" x2="70" y2="486" gradientUnits="userSpaceOnUse">
<stop stop-color="#142B52"/>
<stop offset="1" stop-color="#183667"/>
</linearGradient>
</defs>
</svg>
