<svg width="1440" height="754" viewBox="0 0 1440 754" fill="none" xmlns="http://www.w3.org/2000/svg">
<g clip-path="url(#clip0_994_3313)">
<rect width="1440" height="754" fill="#12284C"/>
<path d="M719.337 340H788.295L892.421 547H823.463L719.337 340Z" fill="url(#paint0_linear_994_3313)"/>
<path d="M649 -74H717.958L822.084 133H753.126L649 -74Z" fill="url(#paint1_linear_994_3313)"/>
<path d="M754.506 547H823.463L927.59 754H858.632L754.506 547Z" fill="url(#paint2_linear_994_3313)"/>
<path d="M684.169 133H753.126L857.253 340H788.295L684.169 133Z" fill="url(#paint3_linear_994_3313)"/>
<path d="M857.253 340H926.211L1030.34 547H961.379L857.253 340Z" fill="url(#paint4_linear_994_3313)"/>
<path d="M786.916 -74H855.874L960 133H891.042L786.916 -74Z" fill="url(#paint5_linear_994_3313)"/>
<path d="M892.421 547H961.379L1065.51 754H996.548L892.421 547Z" fill="url(#paint6_linear_994_3313)"/>
<path d="M822.084 133H891.042L995.169 340H926.211L822.084 133Z" fill="url(#paint7_linear_994_3313)"/>
<path d="M995.169 340H1064.13L1168.25 547H1099.29L995.169 340Z" fill="url(#paint8_linear_994_3313)"/>
<path d="M924.831 -74H993.789L1097.92 133H1028.96L924.831 -74Z" fill="url(#paint9_linear_994_3313)"/>
<path d="M1030.34 547H1099.29L1203.42 754H1134.46L1030.34 547Z" fill="url(#paint10_linear_994_3313)"/>
<path d="M960 133H1028.96L1133.08 340H1064.13L960 133Z" fill="url(#paint11_linear_994_3313)"/>
<path d="M1133.08 340H1202.04L1306.17 547H1237.21L1133.08 340Z" fill="url(#paint12_linear_994_3313)"/>
<path d="M1062.75 -74H1131.71L1235.83 133H1166.87L1062.75 -74Z" fill="url(#paint13_linear_994_3313)"/>
<path d="M1168.25 547H1237.21L1341.34 754H1272.38L1168.25 547Z" fill="url(#paint14_linear_994_3313)"/>
<path d="M1097.92 133H1166.87L1271 340H1202.04L1097.92 133Z" fill="url(#paint15_linear_994_3313)"/>
<path d="M1271 340H1339.96L1444.08 547H1375.13L1271 340Z" fill="url(#paint16_linear_994_3313)"/>
<path d="M1200.66 -74H1269.62L1373.75 133H1304.79L1200.66 -74Z" fill="url(#paint17_linear_994_3313)"/>
<path d="M1306.17 547H1375.13L1479.25 754H1410.29L1306.17 547Z" fill="url(#paint18_linear_994_3313)"/>
<path d="M1235.83 133H1304.79L1408.92 340H1339.96L1235.83 133Z" fill="url(#paint19_linear_994_3313)"/>
<path d="M1408.92 340H1477.87L1582 547H1513.04L1408.92 340Z" fill="url(#paint20_linear_994_3313)"/>
<path d="M1338.58 -74H1407.54L1511.66 133H1442.71L1338.58 -74Z" fill="url(#paint21_linear_994_3313)"/>
<path d="M1444.08 547H1513.04L1617.17 754H1548.21L1444.08 547Z" fill="url(#paint22_linear_994_3313)"/>
<path d="M1373.75 133H1442.71L1546.83 340H1477.87L1373.75 133Z" fill="url(#paint23_linear_994_3313)"/>
<path d="M1546.83 340H1615.79L1719.92 547H1650.96L1546.83 340Z" fill="url(#paint24_linear_994_3313)"/>
<path d="M1476.49 -74H1545.45L1649.58 133H1580.62L1476.49 -74Z" fill="url(#paint25_linear_994_3313)"/>
<path d="M1582 547H1650.96L1755.08 754H1686.13L1582 547Z" fill="url(#paint26_linear_994_3313)"/>
<path d="M1511.66 133H1580.62L1684.75 340H1615.79L1511.66 133Z" fill="url(#paint27_linear_994_3313)"/>
<path d="M1684.75 340H1753.71L1857.83 547H1788.87L1684.75 340Z" fill="url(#paint28_linear_994_3313)"/>
<path d="M1614.41 -74H1683.37L1787.49 133H1718.54L1614.41 -74Z" fill="url(#paint29_linear_994_3313)"/>
<path d="M1719.92 547H1788.87L1893 754H1824.04L1719.92 547Z" fill="url(#paint30_linear_994_3313)"/>
<path d="M1649.58 133H1718.54L1822.66 340H1753.71L1649.58 133Z" fill="url(#paint31_linear_994_3313)"/>
<path d="M-253.725 547H-213.259L-152.156 668.5H-192.622L-253.725 547Z" fill="url(#paint32_linear_994_3313)"/>
<path d="M-295 304H-254.534L-193.431 425.5H-233.897L-295 304Z" fill="url(#paint33_linear_994_3313)"/>
<path d="M-233.088 668.5H-192.622L-131.519 790H-171.984L-233.088 668.5Z" fill="url(#paint34_linear_994_3313)"/>
<path d="M-274.363 425.5H-233.897L-172.794 547H-213.259L-274.363 425.5Z" fill="url(#paint35_linear_994_3313)"/>
<path d="M-172.794 547H-132.328L-71.2251 668.5H-111.691L-172.794 547Z" fill="url(#paint36_linear_994_3313)"/>
<path d="M-214.069 304H-173.603L-112.5 425.5H-152.966L-214.069 304Z" fill="url(#paint37_linear_994_3313)"/>
<path d="M-152.156 668.5H-111.691L-50.5876 790H-91.0532L-152.156 668.5Z" fill="url(#paint38_linear_994_3313)"/>
<path d="M-193.431 425.5H-152.966L-91.8625 547H-132.328L-193.431 425.5Z" fill="url(#paint39_linear_994_3313)"/>
<path d="M-91.8625 547H-51.3969L9.70621 668.5H-30.7594L-91.8625 547Z" fill="url(#paint40_linear_994_3313)"/>
<path d="M-133.137 304H-92.6718L-31.5687 425.5H-72.0344L-133.137 304Z" fill="url(#paint41_linear_994_3313)"/>
<path d="M-71.2251 668.5H-30.7594L30.3437 790H-10.1219L-71.2251 668.5Z" fill="url(#paint42_linear_994_3313)"/>
<path d="M-112.5 425.5H-72.0344L-10.9313 547H-51.3969L-112.5 425.5Z" fill="url(#paint43_linear_994_3313)"/>
<path d="M-10.9313 547H29.5344L90.6375 668.5H50.1718L-10.9313 547Z" fill="url(#paint44_linear_994_3313)"/>
<path d="M-52.2062 304H-11.7406L49.3625 425.5H8.89691L-52.2062 304Z" fill="url(#paint45_linear_994_3313)"/>
<path d="M9.70621 668.5H50.1718L111.275 790H70.8093L9.70621 668.5Z" fill="url(#paint46_linear_994_3313)"/>
<path d="M-31.5687 425.5H8.89691L70 547H29.5344L-31.5687 425.5Z" fill="url(#paint47_linear_994_3313)"/>
<path d="M70 547H110.466L171.569 668.5H131.103L70 547Z" fill="url(#paint48_linear_994_3313)"/>
<path d="M28.7251 304H69.1907L130.294 425.5H89.8282L28.7251 304Z" fill="url(#paint49_linear_994_3313)"/>
<path d="M90.6375 668.5H131.103L192.206 790H151.741L90.6375 668.5Z" fill="url(#paint50_linear_994_3313)"/>
<path d="M49.3625 425.5H89.8282L150.931 547H110.466L49.3625 425.5Z" fill="url(#paint51_linear_994_3313)"/>
<path d="M150.931 547H191.397L252.5 668.5H212.034L150.931 547Z" fill="url(#paint52_linear_994_3313)"/>
<path d="M109.656 304H150.122L211.225 425.5H170.759L109.656 304Z" fill="url(#paint53_linear_994_3313)"/>
<path d="M171.569 668.5H212.034L273.137 790H232.672L171.569 668.5Z" fill="url(#paint54_linear_994_3313)"/>
<path d="M130.294 425.5H170.759L231.863 547H191.397L130.294 425.5Z" fill="url(#paint55_linear_994_3313)"/>
<path d="M231.863 547H272.328L333.431 668.5H292.966L231.863 547Z" fill="url(#paint56_linear_994_3313)"/>
<path d="M190.588 304H231.053L292.156 425.5H251.691L190.588 304Z" fill="url(#paint57_linear_994_3313)"/>
<path d="M252.5 668.5H292.966L354.069 790H313.603L252.5 668.5Z" fill="url(#paint58_linear_994_3313)"/>
<path d="M211.225 425.5H251.691L312.794 547H272.328L211.225 425.5Z" fill="url(#paint59_linear_994_3313)"/>
<path d="M312.794 547H353.259L414.363 668.5H373.897L312.794 547Z" fill="url(#paint60_linear_994_3313)"/>
<path d="M271.519 304H311.984L373.088 425.5H332.622L271.519 304Z" fill="url(#paint61_linear_994_3313)"/>
<path d="M333.431 668.5H373.897L435 790H394.534L333.431 668.5Z" fill="url(#paint62_linear_994_3313)"/>
<path d="M292.156 425.5H332.622L393.725 547H353.259L292.156 425.5Z" fill="url(#paint63_linear_994_3313)"/>
</g>
<defs>
<linearGradient id="paint0_linear_994_3313" x1="1271" y1="-74" x2="1271" y2="754" gradientUnits="userSpaceOnUse">
<stop stop-color="#142B52"/>
<stop offset="1" stop-color="#183667"/>
</linearGradient>
<linearGradient id="paint1_linear_994_3313" x1="1271" y1="-74" x2="1271" y2="754" gradientUnits="userSpaceOnUse">
<stop stop-color="#142B52"/>
<stop offset="1" stop-color="#183667"/>
</linearGradient>
<linearGradient id="paint2_linear_994_3313" x1="1271" y1="-74" x2="1271" y2="754" gradientUnits="userSpaceOnUse">
<stop stop-color="#142B52"/>
<stop offset="1" stop-color="#183667"/>
</linearGradient>
<linearGradient id="paint3_linear_994_3313" x1="1271" y1="-74" x2="1271" y2="754" gradientUnits="userSpaceOnUse">
<stop stop-color="#142B52"/>
<stop offset="1" stop-color="#183667"/>
</linearGradient>
<linearGradient id="paint4_linear_994_3313" x1="1271" y1="-74" x2="1271" y2="754" gradientUnits="userSpaceOnUse">
<stop stop-color="#142B52"/>
<stop offset="1" stop-color="#183667"/>
</linearGradient>
<linearGradient id="paint5_linear_994_3313" x1="1271" y1="-74" x2="1271" y2="754" gradientUnits="userSpaceOnUse">
<stop stop-color="#142B52"/>
<stop offset="1" stop-color="#183667"/>
</linearGradient>
<linearGradient id="paint6_linear_994_3313" x1="1271" y1="-74" x2="1271" y2="754" gradientUnits="userSpaceOnUse">
<stop stop-color="#142B52"/>
<stop offset="1" stop-color="#183667"/>
</linearGradient>
<linearGradient id="paint7_linear_994_3313" x1="1271" y1="-74" x2="1271" y2="754" gradientUnits="userSpaceOnUse">
<stop stop-color="#142B52"/>
<stop offset="1" stop-color="#183667"/>
</linearGradient>
<linearGradient id="paint8_linear_994_3313" x1="1271" y1="-74" x2="1271" y2="754" gradientUnits="userSpaceOnUse">
<stop stop-color="#142B52"/>
<stop offset="1" stop-color="#183667"/>
</linearGradient>
<linearGradient id="paint9_linear_994_3313" x1="1271" y1="-74" x2="1271" y2="754" gradientUnits="userSpaceOnUse">
<stop stop-color="#142B52"/>
<stop offset="1" stop-color="#183667"/>
</linearGradient>
<linearGradient id="paint10_linear_994_3313" x1="1271" y1="-74" x2="1271" y2="754" gradientUnits="userSpaceOnUse">
<stop stop-color="#142B52"/>
<stop offset="1" stop-color="#183667"/>
</linearGradient>
<linearGradient id="paint11_linear_994_3313" x1="1271" y1="-74" x2="1271" y2="754" gradientUnits="userSpaceOnUse">
<stop stop-color="#142B52"/>
<stop offset="1" stop-color="#183667"/>
</linearGradient>
<linearGradient id="paint12_linear_994_3313" x1="1271" y1="-74" x2="1271" y2="754" gradientUnits="userSpaceOnUse">
<stop stop-color="#142B52"/>
<stop offset="1" stop-color="#183667"/>
</linearGradient>
<linearGradient id="paint13_linear_994_3313" x1="1271" y1="-74" x2="1271" y2="754" gradientUnits="userSpaceOnUse">
<stop stop-color="#142B52"/>
<stop offset="1" stop-color="#183667"/>
</linearGradient>
<linearGradient id="paint14_linear_994_3313" x1="1271" y1="-74" x2="1271" y2="754" gradientUnits="userSpaceOnUse">
<stop stop-color="#142B52"/>
<stop offset="1" stop-color="#183667"/>
</linearGradient>
<linearGradient id="paint15_linear_994_3313" x1="1271" y1="-74" x2="1271" y2="754" gradientUnits="userSpaceOnUse">
<stop stop-color="#142B52"/>
<stop offset="1" stop-color="#183667"/>
</linearGradient>
<linearGradient id="paint16_linear_994_3313" x1="1271" y1="-74" x2="1271" y2="754" gradientUnits="userSpaceOnUse">
<stop stop-color="#142B52"/>
<stop offset="1" stop-color="#183667"/>
</linearGradient>
<linearGradient id="paint17_linear_994_3313" x1="1271" y1="-74" x2="1271" y2="754" gradientUnits="userSpaceOnUse">
<stop stop-color="#142B52"/>
<stop offset="1" stop-color="#183667"/>
</linearGradient>
<linearGradient id="paint18_linear_994_3313" x1="1271" y1="-74" x2="1271" y2="754" gradientUnits="userSpaceOnUse">
<stop stop-color="#142B52"/>
<stop offset="1" stop-color="#183667"/>
</linearGradient>
<linearGradient id="paint19_linear_994_3313" x1="1271" y1="-74" x2="1271" y2="754" gradientUnits="userSpaceOnUse">
<stop stop-color="#142B52"/>
<stop offset="1" stop-color="#183667"/>
</linearGradient>
<linearGradient id="paint20_linear_994_3313" x1="1271" y1="-74" x2="1271" y2="754" gradientUnits="userSpaceOnUse">
<stop stop-color="#142B52"/>
<stop offset="1" stop-color="#183667"/>
</linearGradient>
<linearGradient id="paint21_linear_994_3313" x1="1271" y1="-74" x2="1271" y2="754" gradientUnits="userSpaceOnUse">
<stop stop-color="#142B52"/>
<stop offset="1" stop-color="#183667"/>
</linearGradient>
<linearGradient id="paint22_linear_994_3313" x1="1271" y1="-74" x2="1271" y2="754" gradientUnits="userSpaceOnUse">
<stop stop-color="#142B52"/>
<stop offset="1" stop-color="#183667"/>
</linearGradient>
<linearGradient id="paint23_linear_994_3313" x1="1271" y1="-74" x2="1271" y2="754" gradientUnits="userSpaceOnUse">
<stop stop-color="#142B52"/>
<stop offset="1" stop-color="#183667"/>
</linearGradient>
<linearGradient id="paint24_linear_994_3313" x1="1271" y1="-74" x2="1271" y2="754" gradientUnits="userSpaceOnUse">
<stop stop-color="#142B52"/>
<stop offset="1" stop-color="#183667"/>
</linearGradient>
<linearGradient id="paint25_linear_994_3313" x1="1271" y1="-74" x2="1271" y2="754" gradientUnits="userSpaceOnUse">
<stop stop-color="#142B52"/>
<stop offset="1" stop-color="#183667"/>
</linearGradient>
<linearGradient id="paint26_linear_994_3313" x1="1271" y1="-74" x2="1271" y2="754" gradientUnits="userSpaceOnUse">
<stop stop-color="#142B52"/>
<stop offset="1" stop-color="#183667"/>
</linearGradient>
<linearGradient id="paint27_linear_994_3313" x1="1271" y1="-74" x2="1271" y2="754" gradientUnits="userSpaceOnUse">
<stop stop-color="#142B52"/>
<stop offset="1" stop-color="#183667"/>
</linearGradient>
<linearGradient id="paint28_linear_994_3313" x1="1271" y1="-74" x2="1271" y2="754" gradientUnits="userSpaceOnUse">
<stop stop-color="#142B52"/>
<stop offset="1" stop-color="#183667"/>
</linearGradient>
<linearGradient id="paint29_linear_994_3313" x1="1271" y1="-74" x2="1271" y2="754" gradientUnits="userSpaceOnUse">
<stop stop-color="#142B52"/>
<stop offset="1" stop-color="#183667"/>
</linearGradient>
<linearGradient id="paint30_linear_994_3313" x1="1271" y1="-74" x2="1271" y2="754" gradientUnits="userSpaceOnUse">
<stop stop-color="#142B52"/>
<stop offset="1" stop-color="#183667"/>
</linearGradient>
<linearGradient id="paint31_linear_994_3313" x1="1271" y1="-74" x2="1271" y2="754" gradientUnits="userSpaceOnUse">
<stop stop-color="#142B52"/>
<stop offset="1" stop-color="#183667"/>
</linearGradient>
<linearGradient id="paint32_linear_994_3313" x1="70" y1="304" x2="70" y2="790" gradientUnits="userSpaceOnUse">
<stop stop-color="#142B52"/>
<stop offset="1" stop-color="#183667"/>
</linearGradient>
<linearGradient id="paint33_linear_994_3313" x1="70" y1="304" x2="70" y2="790" gradientUnits="userSpaceOnUse">
<stop stop-color="#142B52"/>
<stop offset="1" stop-color="#183667"/>
</linearGradient>
<linearGradient id="paint34_linear_994_3313" x1="70" y1="304" x2="70" y2="790" gradientUnits="userSpaceOnUse">
<stop stop-color="#142B52"/>
<stop offset="1" stop-color="#183667"/>
</linearGradient>
<linearGradient id="paint35_linear_994_3313" x1="70" y1="304" x2="70" y2="790" gradientUnits="userSpaceOnUse">
<stop stop-color="#142B52"/>
<stop offset="1" stop-color="#183667"/>
</linearGradient>
<linearGradient id="paint36_linear_994_3313" x1="70" y1="304" x2="70" y2="790" gradientUnits="userSpaceOnUse">
<stop stop-color="#142B52"/>
<stop offset="1" stop-color="#183667"/>
</linearGradient>
<linearGradient id="paint37_linear_994_3313" x1="70" y1="304" x2="70" y2="790" gradientUnits="userSpaceOnUse">
<stop stop-color="#142B52"/>
<stop offset="1" stop-color="#183667"/>
</linearGradient>
<linearGradient id="paint38_linear_994_3313" x1="70" y1="304" x2="70" y2="790" gradientUnits="userSpaceOnUse">
<stop stop-color="#142B52"/>
<stop offset="1" stop-color="#183667"/>
</linearGradient>
<linearGradient id="paint39_linear_994_3313" x1="70" y1="304" x2="70" y2="790" gradientUnits="userSpaceOnUse">
<stop stop-color="#142B52"/>
<stop offset="1" stop-color="#183667"/>
</linearGradient>
<linearGradient id="paint40_linear_994_3313" x1="70" y1="304" x2="70" y2="790" gradientUnits="userSpaceOnUse">
<stop stop-color="#142B52"/>
<stop offset="1" stop-color="#183667"/>
</linearGradient>
<linearGradient id="paint41_linear_994_3313" x1="70" y1="304" x2="70" y2="790" gradientUnits="userSpaceOnUse">
<stop stop-color="#142B52"/>
<stop offset="1" stop-color="#183667"/>
</linearGradient>
<linearGradient id="paint42_linear_994_3313" x1="70" y1="304" x2="70" y2="790" gradientUnits="userSpaceOnUse">
<stop stop-color="#142B52"/>
<stop offset="1" stop-color="#183667"/>
</linearGradient>
<linearGradient id="paint43_linear_994_3313" x1="70" y1="304" x2="70" y2="790" gradientUnits="userSpaceOnUse">
<stop stop-color="#142B52"/>
<stop offset="1" stop-color="#183667"/>
</linearGradient>
<linearGradient id="paint44_linear_994_3313" x1="70" y1="304" x2="70" y2="790" gradientUnits="userSpaceOnUse">
<stop stop-color="#142B52"/>
<stop offset="1" stop-color="#183667"/>
</linearGradient>
<linearGradient id="paint45_linear_994_3313" x1="70" y1="304" x2="70" y2="790" gradientUnits="userSpaceOnUse">
<stop stop-color="#142B52"/>
<stop offset="1" stop-color="#183667"/>
</linearGradient>
<linearGradient id="paint46_linear_994_3313" x1="70" y1="304" x2="70" y2="790" gradientUnits="userSpaceOnUse">
<stop stop-color="#142B52"/>
<stop offset="1" stop-color="#183667"/>
</linearGradient>
<linearGradient id="paint47_linear_994_3313" x1="70" y1="304" x2="70" y2="790" gradientUnits="userSpaceOnUse">
<stop stop-color="#142B52"/>
<stop offset="1" stop-color="#183667"/>
</linearGradient>
<linearGradient id="paint48_linear_994_3313" x1="70" y1="304" x2="70" y2="790" gradientUnits="userSpaceOnUse">
<stop stop-color="#142B52"/>
<stop offset="1" stop-color="#183667"/>
</linearGradient>
<linearGradient id="paint49_linear_994_3313" x1="70" y1="304" x2="70" y2="790" gradientUnits="userSpaceOnUse">
<stop stop-color="#142B52"/>
<stop offset="1" stop-color="#183667"/>
</linearGradient>
<linearGradient id="paint50_linear_994_3313" x1="70" y1="304" x2="70" y2="790" gradientUnits="userSpaceOnUse">
<stop stop-color="#142B52"/>
<stop offset="1" stop-color="#183667"/>
</linearGradient>
<linearGradient id="paint51_linear_994_3313" x1="70" y1="304" x2="70" y2="790" gradientUnits="userSpaceOnUse">
<stop stop-color="#142B52"/>
<stop offset="1" stop-color="#183667"/>
</linearGradient>
<linearGradient id="paint52_linear_994_3313" x1="70" y1="304" x2="70" y2="790" gradientUnits="userSpaceOnUse">
<stop stop-color="#142B52"/>
<stop offset="1" stop-color="#183667"/>
</linearGradient>
<linearGradient id="paint53_linear_994_3313" x1="70" y1="304" x2="70" y2="790" gradientUnits="userSpaceOnUse">
<stop stop-color="#142B52"/>
<stop offset="1" stop-color="#183667"/>
</linearGradient>
<linearGradient id="paint54_linear_994_3313" x1="70" y1="304" x2="70" y2="790" gradientUnits="userSpaceOnUse">
<stop stop-color="#142B52"/>
<stop offset="1" stop-color="#183667"/>
</linearGradient>
<linearGradient id="paint55_linear_994_3313" x1="70" y1="304" x2="70" y2="790" gradientUnits="userSpaceOnUse">
<stop stop-color="#142B52"/>
<stop offset="1" stop-color="#183667"/>
</linearGradient>
<linearGradient id="paint56_linear_994_3313" x1="70" y1="304" x2="70" y2="790" gradientUnits="userSpaceOnUse">
<stop stop-color="#142B52"/>
<stop offset="1" stop-color="#183667"/>
</linearGradient>
<linearGradient id="paint57_linear_994_3313" x1="70" y1="304" x2="70" y2="790" gradientUnits="userSpaceOnUse">
<stop stop-color="#142B52"/>
<stop offset="1" stop-color="#183667"/>
</linearGradient>
<linearGradient id="paint58_linear_994_3313" x1="70" y1="304" x2="70" y2="790" gradientUnits="userSpaceOnUse">
<stop stop-color="#142B52"/>
<stop offset="1" stop-color="#183667"/>
</linearGradient>
<linearGradient id="paint59_linear_994_3313" x1="70" y1="304" x2="70" y2="790" gradientUnits="userSpaceOnUse">
<stop stop-color="#142B52"/>
<stop offset="1" stop-color="#183667"/>
</linearGradient>
<linearGradient id="paint60_linear_994_3313" x1="70" y1="304" x2="70" y2="790" gradientUnits="userSpaceOnUse">
<stop stop-color="#142B52"/>
<stop offset="1" stop-color="#183667"/>
</linearGradient>
<linearGradient id="paint61_linear_994_3313" x1="70" y1="304" x2="70" y2="790" gradientUnits="userSpaceOnUse">
<stop stop-color="#142B52"/>
<stop offset="1" stop-color="#183667"/>
</linearGradient>
<linearGradient id="paint62_linear_994_3313" x1="70" y1="304" x2="70" y2="790" gradientUnits="userSpaceOnUse">
<stop stop-color="#142B52"/>
<stop offset="1" stop-color="#183667"/>
</linearGradient>
<linearGradient id="paint63_linear_994_3313" x1="70" y1="304" x2="70" y2="790" gradientUnits="userSpaceOnUse">
<stop stop-color="#142B52"/>
<stop offset="1" stop-color="#183667"/>
</linearGradient>
<clipPath id="clip0_994_3313">
<rect width="1440" height="754" fill="white"/>
</clipPath>
</defs>
</svg>
