<svg width="955" height="636" viewBox="0 0 955 636" fill="none" xmlns="http://www.w3.org/2000/svg">
<path d="M53.9967 318H106.935L186.871 477H133.933L53.9967 318Z" fill="url(#paint0_linear_1213_2765)"/>
<path d="M0 0H52.9379L132.874 159H79.9363L0 0Z" fill="url(#paint1_linear_1213_2765)"/>
<path d="M80.995 477H133.933L213.869 636H160.931L80.995 477Z" fill="url(#paint2_linear_1213_2765)"/>
<path d="M26.9983 159H79.9363L159.873 318H106.935L26.9983 159Z" fill="url(#paint3_linear_1213_2765)"/>
<path d="M159.873 318H212.81L292.747 477H239.809L159.873 318Z" fill="url(#paint4_linear_1213_2765)"/>
<path d="M105.876 0H158.814L238.75 159H185.812L105.876 0Z" fill="url(#paint5_linear_1213_2765)"/>
<path d="M186.871 477H239.809L319.745 636H266.807L186.871 477Z" fill="url(#paint6_linear_1213_2765)"/>
<path d="M132.874 159H185.812L265.748 318H212.81L132.874 159Z" fill="url(#paint7_linear_1213_2765)"/>
<path d="M265.748 318H318.686L398.623 477H345.685L265.748 318Z" fill="url(#paint8_linear_1213_2765)"/>
<path d="M211.752 0H264.69L344.626 159H291.688L211.752 0Z" fill="url(#paint9_linear_1213_2765)"/>
<path d="M292.747 477H345.685L425.621 636H372.683L292.747 477Z" fill="url(#paint10_linear_1213_2765)"/>
<path d="M238.75 159H291.688L371.624 318H318.686L238.75 159Z" fill="url(#paint11_linear_1213_2765)"/>
<path d="M371.624 318H424.562L504.498 477H451.56L371.624 318Z" fill="url(#paint12_linear_1213_2765)"/>
<path d="M317.627 0H370.565L450.502 159H397.564L317.627 0Z" fill="url(#paint13_linear_1213_2765)"/>
<path d="M398.623 477H451.56L531.497 636H478.559L398.623 477Z" fill="url(#paint14_linear_1213_2765)"/>
<path d="M344.626 159H397.564L477.5 318H424.562L344.626 159Z" fill="url(#paint15_linear_1213_2765)"/>
<path d="M477.5 318H530.438L610.374 477H557.436L477.5 318Z" fill="url(#paint16_linear_1213_2765)"/>
<path d="M423.503 0H476.441L556.378 159H503.44L423.503 0Z" fill="url(#paint17_linear_1213_2765)"/>
<path d="M504.498 477H557.436L637.373 636H584.435L504.498 477Z" fill="url(#paint18_linear_1213_2765)"/>
<path d="M450.502 159H503.44L583.376 318H530.438L450.502 159Z" fill="url(#paint19_linear_1213_2765)"/>
<path d="M583.376 318H636.314L716.25 477H663.312L583.376 318Z" fill="url(#paint20_linear_1213_2765)"/>
<path d="M529.379 0H582.317L662.253 159H609.315L529.379 0Z" fill="url(#paint21_linear_1213_2765)"/>
<path d="M610.374 477H663.312L743.248 636H690.31L610.374 477Z" fill="url(#paint22_linear_1213_2765)"/>
<path d="M556.378 159H609.315L689.252 318H636.314L556.378 159Z" fill="url(#paint23_linear_1213_2765)"/>
<path d="M689.252 318H742.19L822.126 477H769.188L689.252 318Z" fill="url(#paint24_linear_1213_2765)"/>
<path d="M635.255 0H688.193L768.129 159H715.191L635.255 0Z" fill="url(#paint25_linear_1213_2765)"/>
<path d="M716.25 477H769.188L849.124 636H796.186L716.25 477Z" fill="url(#paint26_linear_1213_2765)"/>
<path d="M662.253 159H715.191L795.128 318H742.19L662.253 159Z" fill="url(#paint27_linear_1213_2765)"/>
<path d="M795.128 318H848.065L928.002 477H875.064L795.128 318Z" fill="url(#paint28_linear_1213_2765)"/>
<path d="M741.131 0H794.069L874.005 159H821.067L741.131 0Z" fill="url(#paint29_linear_1213_2765)"/>
<path d="M822.126 477H875.064L955 636H902.062L822.126 477Z" fill="url(#paint30_linear_1213_2765)"/>
<path d="M768.129 159H821.067L901.003 318H848.065L768.129 159Z" fill="url(#paint31_linear_1213_2765)"/>
<defs>
<linearGradient id="paint0_linear_1213_2765" x1="477.5" y1="0" x2="477.5" y2="636" gradientUnits="userSpaceOnUse">
<stop stop-color="#12284C"/>
<stop offset="1" stop-color="#183667"/>
</linearGradient>
<linearGradient id="paint1_linear_1213_2765" x1="477.5" y1="0" x2="477.5" y2="636" gradientUnits="userSpaceOnUse">
<stop stop-color="#12284C"/>
<stop offset="1" stop-color="#183667"/>
</linearGradient>
<linearGradient id="paint2_linear_1213_2765" x1="477.5" y1="0" x2="477.5" y2="636" gradientUnits="userSpaceOnUse">
<stop stop-color="#12284C"/>
<stop offset="1" stop-color="#183667"/>
</linearGradient>
<linearGradient id="paint3_linear_1213_2765" x1="477.5" y1="0" x2="477.5" y2="636" gradientUnits="userSpaceOnUse">
<stop stop-color="#12284C"/>
<stop offset="1" stop-color="#183667"/>
</linearGradient>
<linearGradient id="paint4_linear_1213_2765" x1="477.5" y1="0" x2="477.5" y2="636" gradientUnits="userSpaceOnUse">
<stop stop-color="#12284C"/>
<stop offset="1" stop-color="#183667"/>
</linearGradient>
<linearGradient id="paint5_linear_1213_2765" x1="477.5" y1="0" x2="477.5" y2="636" gradientUnits="userSpaceOnUse">
<stop stop-color="#12284C"/>
<stop offset="1" stop-color="#183667"/>
</linearGradient>
<linearGradient id="paint6_linear_1213_2765" x1="477.5" y1="0" x2="477.5" y2="636" gradientUnits="userSpaceOnUse">
<stop stop-color="#12284C"/>
<stop offset="1" stop-color="#183667"/>
</linearGradient>
<linearGradient id="paint7_linear_1213_2765" x1="477.5" y1="0" x2="477.5" y2="636" gradientUnits="userSpaceOnUse">
<stop stop-color="#12284C"/>
<stop offset="1" stop-color="#183667"/>
</linearGradient>
<linearGradient id="paint8_linear_1213_2765" x1="477.5" y1="0" x2="477.5" y2="636" gradientUnits="userSpaceOnUse">
<stop stop-color="#12284C"/>
<stop offset="1" stop-color="#183667"/>
</linearGradient>
<linearGradient id="paint9_linear_1213_2765" x1="477.5" y1="0" x2="477.5" y2="636" gradientUnits="userSpaceOnUse">
<stop stop-color="#12284C"/>
<stop offset="1" stop-color="#183667"/>
</linearGradient>
<linearGradient id="paint10_linear_1213_2765" x1="477.5" y1="0" x2="477.5" y2="636" gradientUnits="userSpaceOnUse">
<stop stop-color="#12284C"/>
<stop offset="1" stop-color="#183667"/>
</linearGradient>
<linearGradient id="paint11_linear_1213_2765" x1="477.5" y1="0" x2="477.5" y2="636" gradientUnits="userSpaceOnUse">
<stop stop-color="#12284C"/>
<stop offset="1" stop-color="#183667"/>
</linearGradient>
<linearGradient id="paint12_linear_1213_2765" x1="477.5" y1="0" x2="477.5" y2="636" gradientUnits="userSpaceOnUse">
<stop stop-color="#12284C"/>
<stop offset="1" stop-color="#183667"/>
</linearGradient>
<linearGradient id="paint13_linear_1213_2765" x1="477.5" y1="0" x2="477.5" y2="636" gradientUnits="userSpaceOnUse">
<stop stop-color="#12284C"/>
<stop offset="1" stop-color="#183667"/>
</linearGradient>
<linearGradient id="paint14_linear_1213_2765" x1="477.5" y1="0" x2="477.5" y2="636" gradientUnits="userSpaceOnUse">
<stop stop-color="#12284C"/>
<stop offset="1" stop-color="#183667"/>
</linearGradient>
<linearGradient id="paint15_linear_1213_2765" x1="477.5" y1="0" x2="477.5" y2="636" gradientUnits="userSpaceOnUse">
<stop stop-color="#12284C"/>
<stop offset="1" stop-color="#183667"/>
</linearGradient>
<linearGradient id="paint16_linear_1213_2765" x1="477.5" y1="0" x2="477.5" y2="636" gradientUnits="userSpaceOnUse">
<stop stop-color="#12284C"/>
<stop offset="1" stop-color="#183667"/>
</linearGradient>
<linearGradient id="paint17_linear_1213_2765" x1="477.5" y1="0" x2="477.5" y2="636" gradientUnits="userSpaceOnUse">
<stop stop-color="#12284C"/>
<stop offset="1" stop-color="#183667"/>
</linearGradient>
<linearGradient id="paint18_linear_1213_2765" x1="477.5" y1="0" x2="477.5" y2="636" gradientUnits="userSpaceOnUse">
<stop stop-color="#12284C"/>
<stop offset="1" stop-color="#183667"/>
</linearGradient>
<linearGradient id="paint19_linear_1213_2765" x1="477.5" y1="0" x2="477.5" y2="636" gradientUnits="userSpaceOnUse">
<stop stop-color="#12284C"/>
<stop offset="1" stop-color="#183667"/>
</linearGradient>
<linearGradient id="paint20_linear_1213_2765" x1="477.5" y1="0" x2="477.5" y2="636" gradientUnits="userSpaceOnUse">
<stop stop-color="#12284C"/>
<stop offset="1" stop-color="#183667"/>
</linearGradient>
<linearGradient id="paint21_linear_1213_2765" x1="477.5" y1="0" x2="477.5" y2="636" gradientUnits="userSpaceOnUse">
<stop stop-color="#12284C"/>
<stop offset="1" stop-color="#183667"/>
</linearGradient>
<linearGradient id="paint22_linear_1213_2765" x1="477.5" y1="0" x2="477.5" y2="636" gradientUnits="userSpaceOnUse">
<stop stop-color="#12284C"/>
<stop offset="1" stop-color="#183667"/>
</linearGradient>
<linearGradient id="paint23_linear_1213_2765" x1="477.5" y1="0" x2="477.5" y2="636" gradientUnits="userSpaceOnUse">
<stop stop-color="#12284C"/>
<stop offset="1" stop-color="#183667"/>
</linearGradient>
<linearGradient id="paint24_linear_1213_2765" x1="477.5" y1="0" x2="477.5" y2="636" gradientUnits="userSpaceOnUse">
<stop stop-color="#12284C"/>
<stop offset="1" stop-color="#183667"/>
</linearGradient>
<linearGradient id="paint25_linear_1213_2765" x1="477.5" y1="0" x2="477.5" y2="636" gradientUnits="userSpaceOnUse">
<stop stop-color="#12284C"/>
<stop offset="1" stop-color="#183667"/>
</linearGradient>
<linearGradient id="paint26_linear_1213_2765" x1="477.5" y1="0" x2="477.5" y2="636" gradientUnits="userSpaceOnUse">
<stop stop-color="#12284C"/>
<stop offset="1" stop-color="#183667"/>
</linearGradient>
<linearGradient id="paint27_linear_1213_2765" x1="477.5" y1="0" x2="477.5" y2="636" gradientUnits="userSpaceOnUse">
<stop stop-color="#12284C"/>
<stop offset="1" stop-color="#183667"/>
</linearGradient>
<linearGradient id="paint28_linear_1213_2765" x1="477.5" y1="0" x2="477.5" y2="636" gradientUnits="userSpaceOnUse">
<stop stop-color="#12284C"/>
<stop offset="1" stop-color="#183667"/>
</linearGradient>
<linearGradient id="paint29_linear_1213_2765" x1="477.5" y1="0" x2="477.5" y2="636" gradientUnits="userSpaceOnUse">
<stop stop-color="#12284C"/>
<stop offset="1" stop-color="#183667"/>
</linearGradient>
<linearGradient id="paint30_linear_1213_2765" x1="477.5" y1="0" x2="477.5" y2="636" gradientUnits="userSpaceOnUse">
<stop stop-color="#12284C"/>
<stop offset="1" stop-color="#183667"/>
</linearGradient>
<linearGradient id="paint31_linear_1213_2765" x1="477.5" y1="0" x2="477.5" y2="636" gradientUnits="userSpaceOnUse">
<stop stop-color="#12284C"/>
<stop offset="1" stop-color="#183667"/>
</linearGradient>
</defs>
</svg>
