<svg width="791" height="754" viewBox="0 0 791 754" fill="none" xmlns="http://www.w3.org/2000/svg">
<path d="M70.337 340H139.295L243.421 547H174.463L70.337 340Z" fill="url(#paint0_linear_994_3315)"/>
<path d="M0 -74H68.9579L173.084 133H104.126L0 -74Z" fill="url(#paint1_linear_994_3315)"/>
<path d="M105.506 547H174.463L278.59 754H209.632L105.506 547Z" fill="url(#paint2_linear_994_3315)"/>
<path d="M35.1685 133H104.126L208.253 340H139.295L35.1685 133Z" fill="url(#paint3_linear_994_3315)"/>
<path d="M208.253 340H277.211L381.337 547H312.379L208.253 340Z" fill="url(#paint4_linear_994_3315)"/>
<path d="M137.916 -74H206.874L311 133H242.042L137.916 -74Z" fill="url(#paint5_linear_994_3315)"/>
<path d="M243.421 547H312.379L416.506 754H347.548L243.421 547Z" fill="url(#paint6_linear_994_3315)"/>
<path d="M173.084 133H242.042L346.169 340H277.211L173.084 133Z" fill="url(#paint7_linear_994_3315)"/>
<path d="M346.169 340H415.126L519.253 547H450.295L346.169 340Z" fill="url(#paint8_linear_994_3315)"/>
<path d="M275.831 -74H344.789L448.916 133H379.958L275.831 -74Z" fill="url(#paint9_linear_994_3315)"/>
<path d="M381.337 547H450.295L554.421 754H485.463L381.337 547Z" fill="url(#paint10_linear_994_3315)"/>
<path d="M311 133H379.958L484.084 340H415.126L311 133Z" fill="url(#paint11_linear_994_3315)"/>
<path d="M484.084 340H553.042L657.169 547H588.211L484.084 340Z" fill="url(#paint12_linear_994_3315)"/>
<path d="M413.747 -74H482.705L586.831 133H517.874L413.747 -74Z" fill="url(#paint13_linear_994_3315)"/>
<path d="M519.253 547H588.211L692.337 754H623.379L519.253 547Z" fill="url(#paint14_linear_994_3315)"/>
<path d="M448.916 133H517.874L622 340H553.042L448.916 133Z" fill="url(#paint15_linear_994_3315)"/>
<path d="M622 340H690.958L795.084 547H726.126L622 340Z" fill="url(#paint16_linear_994_3315)"/>
<path d="M551.663 -74H620.621L724.747 133H655.789L551.663 -74Z" fill="url(#paint17_linear_994_3315)"/>
<path d="M657.169 547H726.126L830.253 754H761.295L657.169 547Z" fill="url(#paint18_linear_994_3315)"/>
<path d="M586.831 133H655.789L759.916 340H690.958L586.831 133Z" fill="url(#paint19_linear_994_3315)"/>
<path d="M759.916 340H828.874L933 547H864.042L759.916 340Z" fill="url(#paint20_linear_994_3315)"/>
<path d="M689.579 -74H758.537L862.663 133H793.705L689.579 -74Z" fill="url(#paint21_linear_994_3315)"/>
<path d="M795.084 547H864.042L968.169 754H899.211L795.084 547Z" fill="url(#paint22_linear_994_3315)"/>
<path d="M724.747 133H793.705L897.831 340H828.874L724.747 133Z" fill="url(#paint23_linear_994_3315)"/>
<path d="M897.831 340H966.789L1070.92 547H1001.96L897.831 340Z" fill="url(#paint24_linear_994_3315)"/>
<path d="M827.494 -74H896.452L1000.58 133H931.621L827.494 -74Z" fill="url(#paint25_linear_994_3315)"/>
<path d="M933 547H1001.96L1106.08 754H1037.13L933 547Z" fill="url(#paint26_linear_994_3315)"/>
<path d="M862.663 133H931.621L1035.75 340H966.789L862.663 133Z" fill="url(#paint27_linear_994_3315)"/>
<path d="M1035.75 340H1104.71L1208.83 547H1139.87L1035.75 340Z" fill="url(#paint28_linear_994_3315)"/>
<path d="M965.41 -74H1034.37L1138.49 133H1069.54L965.41 -74Z" fill="url(#paint29_linear_994_3315)"/>
<path d="M1070.92 547H1139.87L1244 754H1175.04L1070.92 547Z" fill="url(#paint30_linear_994_3315)"/>
<path d="M1000.58 133H1069.54L1173.66 340H1104.71L1000.58 133Z" fill="url(#paint31_linear_994_3315)"/>
<defs>
<linearGradient id="paint0_linear_994_3315" x1="622" y1="-74" x2="622" y2="754" gradientUnits="userSpaceOnUse">
<stop stop-color="#142B52"/>
<stop offset="1" stop-color="#183667"/>
</linearGradient>
<linearGradient id="paint1_linear_994_3315" x1="622" y1="-74" x2="622" y2="754" gradientUnits="userSpaceOnUse">
<stop stop-color="#142B52"/>
<stop offset="1" stop-color="#183667"/>
</linearGradient>
<linearGradient id="paint2_linear_994_3315" x1="622" y1="-74" x2="622" y2="754" gradientUnits="userSpaceOnUse">
<stop stop-color="#142B52"/>
<stop offset="1" stop-color="#183667"/>
</linearGradient>
<linearGradient id="paint3_linear_994_3315" x1="622" y1="-74" x2="622" y2="754" gradientUnits="userSpaceOnUse">
<stop stop-color="#142B52"/>
<stop offset="1" stop-color="#183667"/>
</linearGradient>
<linearGradient id="paint4_linear_994_3315" x1="622" y1="-74" x2="622" y2="754" gradientUnits="userSpaceOnUse">
<stop stop-color="#142B52"/>
<stop offset="1" stop-color="#183667"/>
</linearGradient>
<linearGradient id="paint5_linear_994_3315" x1="622" y1="-74" x2="622" y2="754" gradientUnits="userSpaceOnUse">
<stop stop-color="#142B52"/>
<stop offset="1" stop-color="#183667"/>
</linearGradient>
<linearGradient id="paint6_linear_994_3315" x1="622" y1="-74" x2="622" y2="754" gradientUnits="userSpaceOnUse">
<stop stop-color="#142B52"/>
<stop offset="1" stop-color="#183667"/>
</linearGradient>
<linearGradient id="paint7_linear_994_3315" x1="622" y1="-74" x2="622" y2="754" gradientUnits="userSpaceOnUse">
<stop stop-color="#142B52"/>
<stop offset="1" stop-color="#183667"/>
</linearGradient>
<linearGradient id="paint8_linear_994_3315" x1="622" y1="-74" x2="622" y2="754" gradientUnits="userSpaceOnUse">
<stop stop-color="#142B52"/>
<stop offset="1" stop-color="#183667"/>
</linearGradient>
<linearGradient id="paint9_linear_994_3315" x1="622" y1="-74" x2="622" y2="754" gradientUnits="userSpaceOnUse">
<stop stop-color="#142B52"/>
<stop offset="1" stop-color="#183667"/>
</linearGradient>
<linearGradient id="paint10_linear_994_3315" x1="622" y1="-74" x2="622" y2="754" gradientUnits="userSpaceOnUse">
<stop stop-color="#142B52"/>
<stop offset="1" stop-color="#183667"/>
</linearGradient>
<linearGradient id="paint11_linear_994_3315" x1="622" y1="-74" x2="622" y2="754" gradientUnits="userSpaceOnUse">
<stop stop-color="#142B52"/>
<stop offset="1" stop-color="#183667"/>
</linearGradient>
<linearGradient id="paint12_linear_994_3315" x1="622" y1="-74" x2="622" y2="754" gradientUnits="userSpaceOnUse">
<stop stop-color="#142B52"/>
<stop offset="1" stop-color="#183667"/>
</linearGradient>
<linearGradient id="paint13_linear_994_3315" x1="622" y1="-74" x2="622" y2="754" gradientUnits="userSpaceOnUse">
<stop stop-color="#142B52"/>
<stop offset="1" stop-color="#183667"/>
</linearGradient>
<linearGradient id="paint14_linear_994_3315" x1="622" y1="-74" x2="622" y2="754" gradientUnits="userSpaceOnUse">
<stop stop-color="#142B52"/>
<stop offset="1" stop-color="#183667"/>
</linearGradient>
<linearGradient id="paint15_linear_994_3315" x1="622" y1="-74" x2="622" y2="754" gradientUnits="userSpaceOnUse">
<stop stop-color="#142B52"/>
<stop offset="1" stop-color="#183667"/>
</linearGradient>
<linearGradient id="paint16_linear_994_3315" x1="622" y1="-74" x2="622" y2="754" gradientUnits="userSpaceOnUse">
<stop stop-color="#142B52"/>
<stop offset="1" stop-color="#183667"/>
</linearGradient>
<linearGradient id="paint17_linear_994_3315" x1="622" y1="-74" x2="622" y2="754" gradientUnits="userSpaceOnUse">
<stop stop-color="#142B52"/>
<stop offset="1" stop-color="#183667"/>
</linearGradient>
<linearGradient id="paint18_linear_994_3315" x1="622" y1="-74" x2="622" y2="754" gradientUnits="userSpaceOnUse">
<stop stop-color="#142B52"/>
<stop offset="1" stop-color="#183667"/>
</linearGradient>
<linearGradient id="paint19_linear_994_3315" x1="622" y1="-74" x2="622" y2="754" gradientUnits="userSpaceOnUse">
<stop stop-color="#142B52"/>
<stop offset="1" stop-color="#183667"/>
</linearGradient>
<linearGradient id="paint20_linear_994_3315" x1="622" y1="-74" x2="622" y2="754" gradientUnits="userSpaceOnUse">
<stop stop-color="#142B52"/>
<stop offset="1" stop-color="#183667"/>
</linearGradient>
<linearGradient id="paint21_linear_994_3315" x1="622" y1="-74" x2="622" y2="754" gradientUnits="userSpaceOnUse">
<stop stop-color="#142B52"/>
<stop offset="1" stop-color="#183667"/>
</linearGradient>
<linearGradient id="paint22_linear_994_3315" x1="622" y1="-74" x2="622" y2="754" gradientUnits="userSpaceOnUse">
<stop stop-color="#142B52"/>
<stop offset="1" stop-color="#183667"/>
</linearGradient>
<linearGradient id="paint23_linear_994_3315" x1="622" y1="-74" x2="622" y2="754" gradientUnits="userSpaceOnUse">
<stop stop-color="#142B52"/>
<stop offset="1" stop-color="#183667"/>
</linearGradient>
<linearGradient id="paint24_linear_994_3315" x1="622" y1="-74" x2="622" y2="754" gradientUnits="userSpaceOnUse">
<stop stop-color="#142B52"/>
<stop offset="1" stop-color="#183667"/>
</linearGradient>
<linearGradient id="paint25_linear_994_3315" x1="622" y1="-74" x2="622" y2="754" gradientUnits="userSpaceOnUse">
<stop stop-color="#142B52"/>
<stop offset="1" stop-color="#183667"/>
</linearGradient>
<linearGradient id="paint26_linear_994_3315" x1="622" y1="-74" x2="622" y2="754" gradientUnits="userSpaceOnUse">
<stop stop-color="#142B52"/>
<stop offset="1" stop-color="#183667"/>
</linearGradient>
<linearGradient id="paint27_linear_994_3315" x1="622" y1="-74" x2="622" y2="754" gradientUnits="userSpaceOnUse">
<stop stop-color="#142B52"/>
<stop offset="1" stop-color="#183667"/>
</linearGradient>
<linearGradient id="paint28_linear_994_3315" x1="622" y1="-74" x2="622" y2="754" gradientUnits="userSpaceOnUse">
<stop stop-color="#142B52"/>
<stop offset="1" stop-color="#183667"/>
</linearGradient>
<linearGradient id="paint29_linear_994_3315" x1="622" y1="-74" x2="622" y2="754" gradientUnits="userSpaceOnUse">
<stop stop-color="#142B52"/>
<stop offset="1" stop-color="#183667"/>
</linearGradient>
<linearGradient id="paint30_linear_994_3315" x1="622" y1="-74" x2="622" y2="754" gradientUnits="userSpaceOnUse">
<stop stop-color="#142B52"/>
<stop offset="1" stop-color="#183667"/>
</linearGradient>
<linearGradient id="paint31_linear_994_3315" x1="622" y1="-74" x2="622" y2="754" gradientUnits="userSpaceOnUse">
<stop stop-color="#142B52"/>
<stop offset="1" stop-color="#183667"/>
</linearGradient>
</defs>
</svg>
