<svg width="124" height="60" viewBox="0 0 124 60" fill="none" xmlns="http://www.w3.org/2000/svg">
<path d="M6 -1.90735e-06H22L28 6V28H20V20H10V14H20V6H8V28H2.98023e-08V6L6 -1.90735e-06ZM59.9922 28H37.9922L31.9922 22V6L37.9922 -1.90735e-06H59.9922V6H39.9922V22H59.9922V28ZM91.9844 28H63.9844V-1.90735e-06H91.9844V6H71.9844V22H91.9844V28ZM91.9844 16H73.9844V10H91.9844V16ZM95.9766 -1.90735e-06H123.977V6H113.977V28H105.977V6H95.9766V-1.90735e-06Z" fill="#FF4438"/>
<path d="M28 60H2.98023e-08V48L6 42H20V38H2.98023e-08V32H22L28 38V42L22 48H8V54H28V60ZM37.9922 60L31.9922 54V38L37.9922 32H53.9922L59.9922 38V54L53.9922 60H37.9922ZM39.9922 38V54H51.9922V38H39.9922ZM91.9844 60H63.9844V48L69.9844 42H83.9844V38H63.9844V32H85.9844L91.9844 38V42L85.9844 48H71.9844V54H91.9844V60ZM117.977 60H95.9766V54H115.977V48H95.9766V32H123.977V38H103.977V42H117.977L123.977 48V54L117.977 60Z" fill="#12284C"/>
</svg>
