<svg width="225" height="114" viewBox="0 0 225 114" fill="none" xmlns="http://www.w3.org/2000/svg">
<path d="M58.125 60.5996V67L48.5254 76.5996H26.125V86.2002H58.125V95.7998H13.3252V76.5996L22.9248 67H45.3252V60.5996H13.3252V51H48.5254L58.125 60.5996Z" fill="#FF4438"/>
<path fill-rule="evenodd" clip-rule="evenodd" d="M109.312 60.5996V86.2002L99.7129 95.7998H74.1123L64.5127 86.2002V60.5996L74.1123 51H99.7129L109.312 60.5996ZM77.3125 86.2002H96.5127V60.5996H77.3125V86.2002Z" fill="#FF4438"/>
<path d="M160.5 60.5996V67L150.9 76.5996H128.5V86.2002H160.5V95.7998H115.7V76.5996L125.3 67H147.7V60.5996H115.7V51H150.9L160.5 60.5996Z" fill="#FF4438"/>
<path d="M211.688 60.5996H179.688V67H202.088L211.688 76.5996V86.2002L202.088 95.7998H166.888V86.2002H198.888V76.5996H166.888V51H211.688V60.5996Z" fill="#FF4438"/>
<path d="M58.125 9.59961V44.7998H45.3252V32H29.3252V22.3994H45.3252V9.59961H26.125V44.7998H13.3252V9.59961L22.9248 0H48.5254L58.125 9.59961Z" fill="white"/>
<path d="M109.312 9.59961H77.3125V35.2002H109.312V44.7998H74.1123L64.5127 35.2002V9.59961L74.1123 0H109.312V9.59961Z" fill="white"/>
<path d="M160.5 9.59961H128.5V35.2002H160.5V44.7998H115.7V0H160.5V9.59961Z" fill="white"/>
<path d="M195.69 0L195.688 44.7998H182.888V9.59961H166.888V0H195.69Z" fill="white"/>
<path d="M160.5 25.5996H131.7V16H160.5V25.5996Z" fill="white"/>
<path d="M211.688 9.59961H199.31V0H211.688V9.59961Z" fill="#FF4438"/>
<path d="M15.918 110.8H13.918V103.8H19.418L20.918 105.3V106.8L19.918 107.8L20.918 108.8V110.8H18.918V108.3H16.418V106.8H18.918V105.3H15.918V110.8ZM28.916 110.8H21.916V103.8H28.916V105.3H23.916V109.3H28.916V110.8ZM28.916 107.8H24.416V106.3H28.916V107.8ZM35.4141 110.8H29.9141V109.3H34.9141V107.8H31.4141L29.9141 106.3V105.3L31.4141 103.8H36.9141V105.3H31.9141V106.3H35.4141L36.9141 107.8V109.3L35.4141 110.8ZM44.9121 110.8H37.9121V103.8H44.9121V105.3H39.9121V109.3H44.9121V110.8ZM44.9121 107.8H40.4121V106.3H44.9121V107.8ZM47.4102 103.8H51.4102L52.9102 105.3V110.8H50.9102V108.8H48.4102V107.3H50.9102V105.3H47.9102V110.8H45.9102V105.3L47.4102 103.8ZM55.9082 110.8H53.9082V103.8H59.4082L60.9082 105.3V106.8L59.9082 107.8L60.9082 108.8V110.8H58.9082V108.3H56.4082V106.8H58.9082V105.3H55.9082V110.8ZM68.9063 110.8H63.4063L61.9063 109.3V105.3L63.4063 103.8H68.9063V105.3H63.9062V109.3H68.9063V110.8ZM71.9043 110.8H69.9043V103.8H71.9043V110.8ZM74.9043 106.3V103.8H76.9043V110.8H74.9043V107.8H72.4043V106.3H74.9043ZM102.504 110.8H97.0039V109.3H102.004V107.8H98.5039L97.0039 106.3V105.3L98.5039 103.8H104.004V105.3H99.0039V106.3H102.504L104.004 107.8V109.3L102.504 110.8ZM107.002 110.8H105.002V103.8H107.002V110.8ZM110.002 106.3V103.8H112.002V110.8H110.002V107.8H107.502V106.3H110.002ZM114.5 103.8H118.5L120 105.3V110.8H118V108.8H115.5V107.3H118V105.3H115V110.8H113V105.3L114.5 103.8ZM122.998 110.8H120.998V103.8H126.498L127.998 105.3V106.8L126.998 107.8L127.998 108.8V110.8H125.998V108.3H123.498V106.8H125.998V105.3H122.998V110.8ZM135.996 110.8H128.996V103.8H135.996V105.3H130.996V109.3H135.996V110.8ZM135.996 107.8H131.496V106.3H135.996V107.8ZM163.096 110.8H157.596L156.096 109.3V105.3L157.596 103.8H163.096V105.3H158.096V109.3H163.096V110.8ZM165.594 110.8L164.094 109.3V105.3L165.594 103.8H169.594L171.094 105.3V109.3L169.594 110.8H165.594ZM166.094 105.3V109.3H169.094V105.3H166.094ZM174.092 110.8H172.092V103.8H175.092L176.592 105.3V109.3H177.092V103.8H179.092V110.8H176.092L174.592 109.3V105.3H174.092V110.8ZM182.09 110.8H180.09V103.8H183.09L184.59 105.3V109.3H185.09V103.8H187.09V110.8H184.09L182.59 109.3V105.3H182.09V110.8ZM195.088 110.8H188.088V103.8H195.088V105.3H190.088V109.3H195.088V110.8ZM195.088 107.8H190.588V106.3H195.088V107.8ZM203.086 110.8H197.586L196.086 109.3V105.3L197.586 103.8H203.086V105.3H198.086V109.3H203.086V110.8ZM204.084 103.8H211.084V105.3H208.584V110.8H206.584V105.3H204.084V103.8Z" fill="white"/>
<path d="M87.5104 113.04H86.4004V102.2H87.5104V113.04ZM146.602 113.04H145.492V102.2H146.602V113.04Z" fill="#FF4438"/>
</svg>
