<svg width="1440" height="446" viewBox="0 0 1440 446" fill="none" xmlns="http://www.w3.org/2000/svg">
<path d="M1415.84 454.5H1319.61L1174.31 681.75H1270.54L1415.84 454.5Z" fill="url(#paint0_linear_854_3806)"/>
<path d="M1514 0H1417.77L1272.46 227.25H1368.69L1514 0Z" fill="url(#paint1_linear_854_3806)"/>
<path d="M1366.77 681.75H1270.54L1125.23 909H1221.46L1366.77 681.75Z" fill="url(#paint2_linear_854_3806)"/>
<path d="M1464.92 227.25H1368.69L1223.38 454.5H1319.61L1464.92 227.25Z" fill="url(#paint3_linear_854_3806)"/>
<path d="M1223.38 454.5H1127.15L981.845 681.75H1078.08L1223.38 454.5Z" fill="url(#paint4_linear_854_3806)"/>
<path d="M1321.54 0H1225.31L1080 227.25H1176.23L1321.54 0Z" fill="url(#paint5_linear_854_3806)"/>
<path d="M1174.31 681.75H1078.08L932.767 909H1029L1174.31 681.75Z" fill="url(#paint6_linear_854_3806)"/>
<path d="M1272.46 227.25H1176.23L1030.92 454.5H1127.15L1272.46 227.25Z" fill="url(#paint7_linear_854_3806)"/>
<path d="M1030.92 454.5H934.692L789.384 681.75H885.614L1030.92 454.5Z" fill="url(#paint8_linear_854_3806)"/>
<path d="M1129.08 0H1032.85L887.539 227.25H983.769L1129.08 0Z" fill="url(#paint9_linear_854_3806)"/>
<path d="M981.845 681.75H885.614L740.306 909H836.537L981.845 681.75Z" fill="url(#paint10_linear_854_3806)"/>
<path d="M1080 227.25H983.769L838.461 454.5H934.692L1080 227.25Z" fill="url(#paint11_linear_854_3806)"/>
<path d="M838.461 454.5H742.231L596.922 681.75H693.153L838.461 454.5Z" fill="url(#paint12_linear_854_3806)"/>
<path d="M936.616 0H840.386L695.078 227.25H791.308L936.616 0Z" fill="url(#paint13_linear_854_3806)"/>
<path d="M789.384 681.75H693.153L547.845 909H644.075L789.384 681.75Z" fill="url(#paint14_linear_854_3806)"/>
<path d="M887.539 227.25H791.308L646 454.5H742.231L887.539 227.25Z" fill="url(#paint15_linear_854_3806)"/>
<path d="M646 454.5H549.769L404.461 681.75H500.692L646 454.5Z" fill="url(#paint16_linear_854_3806)"/>
<path d="M744.155 0H647.925L502.616 227.25H598.847L744.155 0Z" fill="url(#paint17_linear_854_3806)"/>
<path d="M596.922 681.75H500.692L355.384 909H451.614L596.922 681.75Z" fill="url(#paint18_linear_854_3806)"/>
<path d="M695.078 227.25H598.847L453.539 454.5H549.769L695.078 227.25Z" fill="url(#paint19_linear_854_3806)"/>
<path d="M453.539 454.5H357.308L212 681.75H308.231L453.539 454.5Z" fill="url(#paint20_linear_854_3806)"/>
<path d="M551.694 0H455.463L310.155 227.25H406.386L551.694 0Z" fill="url(#paint21_linear_854_3806)"/>
<path d="M404.461 681.75H308.231L162.922 909H259.153L404.461 681.75Z" fill="url(#paint22_linear_854_3806)"/>
<path d="M502.616 227.25H406.386L261.078 454.5H357.308L502.616 227.25Z" fill="url(#paint23_linear_854_3806)"/>
<path d="M261.078 454.5H164.847L19.5388 681.75H115.769L261.078 454.5Z" fill="url(#paint24_linear_854_3806)"/>
<path d="M359.233 0H263.002L117.694 227.25H213.925L359.233 0Z" fill="url(#paint25_linear_854_3806)"/>
<path d="M212 681.75H115.769L-29.5388 909H66.6917L212 681.75Z" fill="url(#paint26_linear_854_3806)"/>
<path d="M310.155 227.25H213.925L68.6163 454.5H164.847L310.155 227.25Z" fill="url(#paint27_linear_854_3806)"/>
<path d="M68.6163 454.5H-27.6143L-172.922 681.75H-76.6919L68.6163 454.5Z" fill="url(#paint28_linear_854_3806)"/>
<path d="M166.772 0H70.541L-74.7672 227.25H21.4634L166.772 0Z" fill="url(#paint29_linear_854_3806)"/>
<path d="M19.5388 681.75H-76.6919L-222 909H-125.77L19.5388 681.75Z" fill="url(#paint30_linear_854_3806)"/>
<path d="M117.694 227.25H21.4634L-123.845 454.5H-27.6143L117.694 227.25Z" fill="url(#paint31_linear_854_3806)"/>
<defs>
<linearGradient id="paint0_linear_854_3806" x1="646" y1="0" x2="646" y2="909" gradientUnits="userSpaceOnUse">
<stop stop-color="#142B52"/>
<stop offset="1" stop-color="#183667"/>
</linearGradient>
<linearGradient id="paint1_linear_854_3806" x1="646" y1="0" x2="646" y2="909" gradientUnits="userSpaceOnUse">
<stop stop-color="#142B52"/>
<stop offset="1" stop-color="#183667"/>
</linearGradient>
<linearGradient id="paint2_linear_854_3806" x1="646" y1="0" x2="646" y2="909" gradientUnits="userSpaceOnUse">
<stop stop-color="#142B52"/>
<stop offset="1" stop-color="#183667"/>
</linearGradient>
<linearGradient id="paint3_linear_854_3806" x1="646" y1="0" x2="646" y2="909" gradientUnits="userSpaceOnUse">
<stop stop-color="#142B52"/>
<stop offset="1" stop-color="#183667"/>
</linearGradient>
<linearGradient id="paint4_linear_854_3806" x1="646" y1="0" x2="646" y2="909" gradientUnits="userSpaceOnUse">
<stop stop-color="#142B52"/>
<stop offset="1" stop-color="#183667"/>
</linearGradient>
<linearGradient id="paint5_linear_854_3806" x1="646" y1="0" x2="646" y2="909" gradientUnits="userSpaceOnUse">
<stop stop-color="#142B52"/>
<stop offset="1" stop-color="#183667"/>
</linearGradient>
<linearGradient id="paint6_linear_854_3806" x1="646" y1="0" x2="646" y2="909" gradientUnits="userSpaceOnUse">
<stop stop-color="#142B52"/>
<stop offset="1" stop-color="#183667"/>
</linearGradient>
<linearGradient id="paint7_linear_854_3806" x1="646" y1="0" x2="646" y2="909" gradientUnits="userSpaceOnUse">
<stop stop-color="#142B52"/>
<stop offset="1" stop-color="#183667"/>
</linearGradient>
<linearGradient id="paint8_linear_854_3806" x1="646" y1="0" x2="646" y2="909" gradientUnits="userSpaceOnUse">
<stop stop-color="#142B52"/>
<stop offset="1" stop-color="#183667"/>
</linearGradient>
<linearGradient id="paint9_linear_854_3806" x1="646" y1="0" x2="646" y2="909" gradientUnits="userSpaceOnUse">
<stop stop-color="#142B52"/>
<stop offset="1" stop-color="#183667"/>
</linearGradient>
<linearGradient id="paint10_linear_854_3806" x1="646" y1="0" x2="646" y2="909" gradientUnits="userSpaceOnUse">
<stop stop-color="#142B52"/>
<stop offset="1" stop-color="#183667"/>
</linearGradient>
<linearGradient id="paint11_linear_854_3806" x1="646" y1="0" x2="646" y2="909" gradientUnits="userSpaceOnUse">
<stop stop-color="#142B52"/>
<stop offset="1" stop-color="#183667"/>
</linearGradient>
<linearGradient id="paint12_linear_854_3806" x1="646" y1="0" x2="646" y2="909" gradientUnits="userSpaceOnUse">
<stop stop-color="#142B52"/>
<stop offset="1" stop-color="#183667"/>
</linearGradient>
<linearGradient id="paint13_linear_854_3806" x1="646" y1="0" x2="646" y2="909" gradientUnits="userSpaceOnUse">
<stop stop-color="#142B52"/>
<stop offset="1" stop-color="#183667"/>
</linearGradient>
<linearGradient id="paint14_linear_854_3806" x1="646" y1="0" x2="646" y2="909" gradientUnits="userSpaceOnUse">
<stop stop-color="#142B52"/>
<stop offset="1" stop-color="#183667"/>
</linearGradient>
<linearGradient id="paint15_linear_854_3806" x1="646" y1="0" x2="646" y2="909" gradientUnits="userSpaceOnUse">
<stop stop-color="#142B52"/>
<stop offset="1" stop-color="#183667"/>
</linearGradient>
<linearGradient id="paint16_linear_854_3806" x1="646" y1="0" x2="646" y2="909" gradientUnits="userSpaceOnUse">
<stop stop-color="#142B52"/>
<stop offset="1" stop-color="#183667"/>
</linearGradient>
<linearGradient id="paint17_linear_854_3806" x1="646" y1="0" x2="646" y2="909" gradientUnits="userSpaceOnUse">
<stop stop-color="#142B52"/>
<stop offset="1" stop-color="#183667"/>
</linearGradient>
<linearGradient id="paint18_linear_854_3806" x1="646" y1="0" x2="646" y2="909" gradientUnits="userSpaceOnUse">
<stop stop-color="#142B52"/>
<stop offset="1" stop-color="#183667"/>
</linearGradient>
<linearGradient id="paint19_linear_854_3806" x1="646" y1="0" x2="646" y2="909" gradientUnits="userSpaceOnUse">
<stop stop-color="#142B52"/>
<stop offset="1" stop-color="#183667"/>
</linearGradient>
<linearGradient id="paint20_linear_854_3806" x1="646" y1="0" x2="646" y2="909" gradientUnits="userSpaceOnUse">
<stop stop-color="#142B52"/>
<stop offset="1" stop-color="#183667"/>
</linearGradient>
<linearGradient id="paint21_linear_854_3806" x1="646" y1="0" x2="646" y2="909" gradientUnits="userSpaceOnUse">
<stop stop-color="#142B52"/>
<stop offset="1" stop-color="#183667"/>
</linearGradient>
<linearGradient id="paint22_linear_854_3806" x1="646" y1="0" x2="646" y2="909" gradientUnits="userSpaceOnUse">
<stop stop-color="#142B52"/>
<stop offset="1" stop-color="#183667"/>
</linearGradient>
<linearGradient id="paint23_linear_854_3806" x1="646" y1="0" x2="646" y2="909" gradientUnits="userSpaceOnUse">
<stop stop-color="#142B52"/>
<stop offset="1" stop-color="#183667"/>
</linearGradient>
<linearGradient id="paint24_linear_854_3806" x1="646" y1="0" x2="646" y2="909" gradientUnits="userSpaceOnUse">
<stop stop-color="#142B52"/>
<stop offset="1" stop-color="#183667"/>
</linearGradient>
<linearGradient id="paint25_linear_854_3806" x1="646" y1="0" x2="646" y2="909" gradientUnits="userSpaceOnUse">
<stop stop-color="#142B52"/>
<stop offset="1" stop-color="#183667"/>
</linearGradient>
<linearGradient id="paint26_linear_854_3806" x1="646" y1="0" x2="646" y2="909" gradientUnits="userSpaceOnUse">
<stop stop-color="#142B52"/>
<stop offset="1" stop-color="#183667"/>
</linearGradient>
<linearGradient id="paint27_linear_854_3806" x1="646" y1="0" x2="646" y2="909" gradientUnits="userSpaceOnUse">
<stop stop-color="#142B52"/>
<stop offset="1" stop-color="#183667"/>
</linearGradient>
<linearGradient id="paint28_linear_854_3806" x1="646" y1="0" x2="646" y2="909" gradientUnits="userSpaceOnUse">
<stop stop-color="#142B52"/>
<stop offset="1" stop-color="#183667"/>
</linearGradient>
<linearGradient id="paint29_linear_854_3806" x1="646" y1="0" x2="646" y2="909" gradientUnits="userSpaceOnUse">
<stop stop-color="#142B52"/>
<stop offset="1" stop-color="#183667"/>
</linearGradient>
<linearGradient id="paint30_linear_854_3806" x1="646" y1="0" x2="646" y2="909" gradientUnits="userSpaceOnUse">
<stop stop-color="#142B52"/>
<stop offset="1" stop-color="#183667"/>
</linearGradient>
<linearGradient id="paint31_linear_854_3806" x1="646" y1="0" x2="646" y2="909" gradientUnits="userSpaceOnUse">
<stop stop-color="#142B52"/>
<stop offset="1" stop-color="#183667"/>
</linearGradient>
</defs>
</svg>
