<svg width="287" height="287" viewBox="0 0 287 287" fill="none" xmlns="http://www.w3.org/2000/svg">
<circle cx="143.5" cy="143.5" r="143.5" fill="white"/>
<path d="M88.2405 156.381V162.785L78.5577 172.39H55.9634V181.995H88.2405V191.6H43.0527V172.39L52.7355 162.785H75.3298V156.381H43.0527V146.777H78.5577L88.2405 156.381Z" fill="#FF4438"/>
<path fill-rule="evenodd" clip-rule="evenodd" d="M139.871 156.381V181.995L130.188 191.6H104.366L94.6835 181.995V156.381L104.366 146.777H130.188L139.871 156.381ZM107.594 181.995H126.961V156.381H107.594V181.995Z" fill="#FF4438"/>
<path d="M191.502 156.381V162.785L181.819 172.39H159.225V181.995H191.502V191.6H146.314V172.39L155.997 162.785H178.591V156.381H146.314V146.777H181.819L191.502 156.381Z" fill="#FF4438"/>
<path d="M243.133 156.381H210.856V162.785H233.45L243.133 172.39V181.995L233.45 191.6H197.945V181.995H230.222V172.39H197.945V146.777H243.133V156.381Z" fill="#FF4438"/>
<path d="M88.2405 105.355V140.574H75.3298V127.767H59.1913V118.162H75.3298V105.355H55.9634V140.574H43.0527V105.355L52.7355 95.751H78.5577L88.2405 105.355Z" fill="#12284C"/>
<path d="M139.871 105.355H107.594V130.969H139.871V140.574H104.366L94.6835 130.969V105.355L104.366 95.751H139.871V105.355Z" fill="#12284C"/>
<path d="M191.502 105.355H159.225V130.969H191.502V140.574H146.314V95.751H191.502V105.355Z" fill="#12284C"/>
<path d="M226.997 95.751L226.994 140.574H214.084V105.355H197.945V95.751H226.997Z" fill="#12284C"/>
<path d="M191.502 121.364H162.453V111.759H191.502V121.364Z" fill="#12284C"/>
<path d="M243.133 105.355H230.648V95.751H243.133V105.355Z" fill="#FF4438"/>
</svg>
